<?xml version="1.0" encoding="iso-8859-1"?>
<!-- Generator: Adobe Illustrator 19.0.0, SVG Export Plug-In . SVG Version: 6.00 Build 0)  -->
<svg version="1.1" id="Capa_1" xmlns="http://www.w3.org/2000/svg" xmlns:xlink="http://www.w3.org/1999/xlink" x="0px" y="0px"
	 viewBox="0 0 512 512" style="enable-background:new 0 0 512 512;" xml:space="preserve">
<linearGradient id="SVGID_1_" gradientUnits="userSpaceOnUse" x1="0" y1="258" x2="512" y2="258" gradientTransform="matrix(1 0 0 -1 0 514)">
	<stop  offset="0" style="stop-color:#00F2FE"/>
	<stop  offset="0.021" style="stop-color:#03EFFE"/>
	<stop  offset="0.293" style="stop-color:#24D2FE"/>
	<stop  offset="0.554" style="stop-color:#3CBDFE"/>
	<stop  offset="0.796" style="stop-color:#4AB0FE"/>
	<stop  offset="1" style="stop-color:#4FACFE"/>
</linearGradient>
<path style="fill:url(#SVGID_1_);" d="M432,50H80C35.888,50,0,85.888,0,130v252c0,44.112,35.888,80,80,80h352
	c44.112,0,80-35.888,80-80v-8c0-11.046-8.954-20-20-20s-20,8.954-20,20v8c0,22.056-17.944,40-40,40h-75v-82h45
	c11.046,0,20-8.954,20-20s-8.954-20-20-20h-45v-88h115v54c0,11.046,8.954,20,20,20s20-8.954,20-20V130C512,85.888,476.112,50,432,50
	z M317,90v82H196V90H317z M80,90h76v82H40v-42C40,107.944,57.944,90,80,90z M40,212h116v88H40V212z M40,382v-42h116v82H80
	C57.944,422,40,404.056,40,382z M317,422H196v-82h121V422z M317,300H196v-88h121V300z M357,172V90h75c22.056,0,40,17.944,40,40v42
	H357z"/>
<g>
</g>
<g>
</g>
<g>
</g>
<g>
</g>
<g>
</g>
<g>
</g>
<g>
</g>
<g>
</g>
<g>
</g>
<g>
</g>
<g>
</g>
<g>
</g>
<g>
</g>
<g>
</g>
<g>
</g>
</svg>
