<?xml version="1.0" encoding="utf-8"?>
<!-- Generator: Adobe Illustrator 19.0.0, SVG Export Plug-In . SVG Version: 6.00 Build 0)  -->
<svg xmlns="http://www.w3.org/2000/svg" xmlns:xlink="http://www.w3.org/1999/xlink" version="1.1" id="Layer_1" x="0px" y="0px" viewBox="0 2 98 98" style="enable-background:new 0 2 98 98;" xml:space="preserve" width="512" height="512">
<style type="text/css">
	.st0{fill:url(#SVGID_1_);}
	.st1{fill:url(#SVGID_2_);}
	.st2{fill:url(#SVGID_3_);}
	.st3{fill:url(#SVGID_4_);}
</style>
<g>
	
		<linearGradient id="SVGID_1_" gradientUnits="userSpaceOnUse" x1="78.5" y1="92.3333" x2="78.5" y2="10.6497" gradientTransform="matrix(1 0 0 -1 0 104)">
		<stop offset="0" style="stop-color:#00EFD1"/>
		<stop offset="1" style="stop-color:#00ACEA"/>
	</linearGradient>
	<path class="st0" d="M78.5,34C84.3,34,89,29.3,89,23.5S84.3,13,78.5,13S68,17.7,68,23.5S72.7,34,78.5,34z M78.5,19   c2.5,0,4.5,2,4.5,4.5S81,28,78.5,28S74,26,74,23.5S76,19,78.5,19z"/>
	
		<linearGradient id="SVGID_2_" gradientUnits="userSpaceOnUse" x1="63.5" y1="92.3333" x2="63.5" y2="10.6497" gradientTransform="matrix(1 0 0 -1 0 104)">
		<stop offset="0" style="stop-color:#00EFD1"/>
		<stop offset="1" style="stop-color:#00ACEA"/>
	</linearGradient>
	<path class="st1" d="M89,52.5C89,46.7,84.3,42,78.5,42c-1.9,0-3.7,0.5-5.2,1.4L58,28c0.7-1.4,1-2.9,1-4.5C59,17.7,54.3,13,48.5,13   S38,17.7,38,23.5S42.7,34,48.5,34c2,0,3.8-0.6,5.4-1.5l15.2,15.3c-0.7,1.4-1.1,3-1.1,4.7c0,4.9,3.4,9.1,8,10.2v9.6   c-4.6,1.1-8,5.3-8,10.2C68,88.3,72.7,93,78.5,93S89,88.3,89,82.5c0-4.6-2.9-8.4-7-9.9V62.4C86.1,60.9,89,57.1,89,52.5z M44,23.5   c0-2.5,2-4.5,4.5-4.5s4.5,2,4.5,4.5S51,28,48.5,28S44,26,44,23.5z M74,52.5c0-2.5,2-4.5,4.5-4.5s4.5,2,4.5,4.5S81,57,78.5,57   S74,55,74,52.5z M78.5,87C76,87,74,85,74,82.5s2-4.5,4.5-4.5s4.5,2,4.5,4.5S81,87,78.5,87z"/>
	
		<linearGradient id="SVGID_3_" gradientUnits="userSpaceOnUse" x1="34" y1="92.3333" x2="34" y2="10.6497" gradientTransform="matrix(1 0 0 -1 0 104)">
		<stop offset="0" style="stop-color:#00EFD1"/>
		<stop offset="1" style="stop-color:#00ACEA"/>
	</linearGradient>
	<path class="st2" d="M59,52.5C59,46.7,54.3,42,48.5,42S38,46.7,38,52.5c0,4.9,3.4,9.1,8,10.2v9.6c-1.6,0.4-3.1,1.2-4.3,2.2L27,59.8   c1.9-1.9,3-4.5,3-7.3c0-4.9-3.4-9.1-8-10.2v-8.6c4.6-1.1,8-5.3,8-10.2C30,17.7,25.3,13,19.5,13S9,17.7,9,23.5c0,4.6,2.9,8.4,7,9.9   v9.2c-4.1,1.4-7,5.3-7,9.9C9,58.3,13.7,63,19.5,63c0.7,0,1.3-0.1,2-0.2l16.9,16.9c-0.2,0.9-0.4,1.8-0.4,2.8   C38,88.3,42.7,93,48.5,93S59,88.3,59,82.5c0-4.6-2.9-8.4-7-9.9V62.4C56.1,60.9,59,57.1,59,52.5z M44,52.5c0-2.5,2-4.5,4.5-4.5   s4.5,2,4.5,4.5S51,57,48.5,57S44,55,44,52.5z M19.5,19c2.5,0,4.5,2,4.5,4.5S22,28,19.5,28S15,26,15,23.5S17,19,19.5,19z M15,52.5   c0-2.5,2-4.5,4.5-4.5s4.5,2,4.5,4.5S22,57,19.5,57S15,55,15,52.5z M48.5,87C46,87,44,85,44,82.5s2-4.5,4.5-4.5s4.5,2,4.5,4.5   S51,87,48.5,87z"/>
	
		<linearGradient id="SVGID_4_" gradientUnits="userSpaceOnUse" x1="19.5" y1="92.3333" x2="19.5" y2="10.6497" gradientTransform="matrix(1 0 0 -1 0 104)">
		<stop offset="0" style="stop-color:#00EFD1"/>
		<stop offset="1" style="stop-color:#00ACEA"/>
	</linearGradient>
	<path class="st3" d="M19.5,72C13.7,72,9,76.7,9,82.5S13.7,93,19.5,93S30,88.3,30,82.5S25.3,72,19.5,72z M19.5,87   C17,87,15,85,15,82.5s2-4.5,4.5-4.5s4.5,2,4.5,4.5S22,87,19.5,87z"/>
</g>
</svg>
