<?xml version="1.0" encoding="iso-8859-1"?>
<!-- Generator: Adobe Illustrator 19.0.0, SVG Export Plug-In . SVG Version: 6.00 Build 0)  -->
<svg version="1.1" id="Capa_1" xmlns="http://www.w3.org/2000/svg" xmlns:xlink="http://www.w3.org/1999/xlink" x="0px" y="0px"
	 viewBox="0 0 512 512" style="enable-background:new 0 0 512 512;" xml:space="preserve">
<path style="fill:#319CD6;" d="M482,428.427H30c-16.569,0-30-13.431-30-30V113.573c0-16.569,13.431-30,30-30h452
	c16.569,0,30,13.431,30,30v284.853C512,414.995,498.569,428.427,482,428.427z"/>
<path style="fill:#FFAE42;" d="M418.371,142.19H93.629c-16.542,0-30,13.458-30,30v167.62c0,16.542,13.458,30,30,30h324.742
	c16.542,0,30-13.458,30-30V172.19C448.371,155.648,434.913,142.19,418.371,142.19z"/>
<path style="fill:#C745A3;" d="M313.471,209.672H198.529c-16.542,0-30,13.458-30,30v32.656c0,16.542,13.458,30,30,30H313.47
	c16.542,0,30-13.458,30-30v-32.656C343.471,223.13,330.013,209.672,313.471,209.672z"/>
<path style="fill:#55D8EF;" d="M256,83.573H30c-16.568,0-30,13.431-30,30v284.853c0,16.569,13.432,30,30,30h226V83.573z"/>
<path style="fill:#FFDF63;" d="M256,142.19H93.629c-16.542,0-30,13.458-30,30v167.62c0,16.542,13.458,30,30,30H256V142.19z"/>
<path style="fill:#FF5CA5;" d="M256,209.672h-57.471c-16.542,0-30,13.458-30,30v32.656c0,16.542,13.458,30,30,30H256V209.672z"/>
<g>
</g>
<g>
</g>
<g>
</g>
<g>
</g>
<g>
</g>
<g>
</g>
<g>
</g>
<g>
</g>
<g>
</g>
<g>
</g>
<g>
</g>
<g>
</g>
<g>
</g>
<g>
</g>
<g>
</g>
</svg>
